<?xml version="1.0" encoding="utf-8"?>
<!-- Generator: Adobe Illustrator 18.0.0, SVG Export Plug-In . SVG Version: 6.00 Build 0)  -->
<!DOCTYPE svg PUBLIC "-//W3C//DTD SVG 1.1//EN" "http://www.w3.org/Graphics/SVG/1.1/DTD/svg11.dtd">
<svg version="1.1" id="Layer_1" xmlns="http://www.w3.org/2000/svg" xmlns:xlink="http://www.w3.org/1999/xlink" x="0px" y="0px"
	 viewBox="0 0 337 67" enable-background="new 0 0 337 67" xml:space="preserve">
<path fill-rule="evenodd" clip-rule="evenodd" fill="#fff" d="M-59-84l40-12"/>
<path fill="#fff" d="M336.3,53.7c0-3.1-0.9-5.8-3.1-7.9c-2.2-2.1-5.4-3.5-10-4.6l-0.2,0.6l0.2-0.6c-3.8-0.9-6.1-1.8-7.4-2.8
	c-1.3-1-1.6-1.8-1.6-3.4c0-1.8,0.7-3.2,2.1-4.3c1.3-1.1,3.3-1.8,5.7-1.8c4.1,0,7,2,7.9,5.2l0.2,0.6c0.1,0.3,0.4,0.5,0.8,0.5l4.4-0.9
	c0.2,0,0.3-0.1,0.4-0.3c0.1-0.1,0.1-0.3,0.1-0.5l-0.2-0.7c-1.3-5.4-6.3-9.4-13.4-9.4H322c-3.7,0-7.1,1.2-9.7,3.3
	c-2.5,2.1-4.2,5.1-4.2,8.6l0,0c0,0,0,0,0,0l0,0c0,0,0,0,0,0c0,0,0,0,0,0c0,2.7,0.9,5.2,3,7c2.1,1.9,5.1,3.2,9.4,4.1
	c4,0.9,6.6,2,8,3.1c1.4,1.2,1.8,2.3,1.8,4.3c0,2.1-0.8,3.8-2.3,5.1c-1.5,1.3-3.7,2.1-6.5,2.1c-2.5,0-4.6-0.7-6.2-1.8
	c-1.6-1.1-2.6-2.8-2.9-4.8l-0.1-0.7c0-0.2-0.1-0.3-0.3-0.4c-0.2-0.1-0.3-0.1-0.5-0.1l-4.3,0.9c-0.4,0.1-0.6,0.4-0.5,0.7l0.1,0.6
	c0.9,6.2,6.8,11.1,14.6,11.1h0h0c4.1,0,7.7-1.3,10.5-3.5C334.6,60.7,336.3,57.5,336.3,53.7L336.3,53.7L336.3,53.7L336.3,53.7
	C336.3,53.7,336.3,53.7,336.3,53.7z M294.9,29.7c-4-3.9-9.4-6.3-15.5-6.3c0,0,0,0,0,0c0,0,0,0,0,0c-6.1,0-11.5,2.4-15.5,6.3
	c-4,3.9-6.4,9.3-6.4,15.3c0,6,2.4,11.4,6.4,15.3c4,3.9,9.4,6.3,15.5,6.3c0,0-0.1,0-0.2,0c0,0,0.1,0,0.1,0c0,0,0.1,0,0.1,0h0
	c0,0,0,0,0,0c0,0,0,0,0,0c6.1,0,11.6-2.4,15.5-6.3c4-3.9,6.4-9.3,6.4-15.3C301.3,39,298.8,33.6,294.9,29.7z M279.3,61.1
	c-9,0-16-7-16-16.1c0-9.1,7.1-16.1,16-16.1c9,0,16,7,16,16.1C295.3,54,288.3,61.1,279.3,61.1z M251.2,65.7c0.1-0.2,0.1-0.5-0.1-0.7
	l-12.7-16.3c0.1,0,0.2,0,0.4,0c7.5-0.5,12-6.2,12-12.2c0,0,0,0,0,0l0,0c0,0,0,0,0,0c0-3.5-1.3-6.7-3.8-8.9c-2.4-2.3-6-3.6-10.2-3.6
	c0,0,0,0,0,0c0,0,0,0,0,0h-17c-0.2,0-0.4,0.1-0.5,0.2c-0.1,0.1-0.2,0.3-0.2,0.5v40.9c0,0.2,0.1,0.3,0.2,0.5c0.1,0.1,0.3,0.2,0.5,0.2
	h4.5c0.2,0,0.4-0.1,0.5-0.2c0.1-0.1,0.2-0.3,0.2-0.5V29.2h11.6c2.7,0,4.8,0.8,6.2,2c1.4,1.2,2.2,2.9,2.2,5.2c0,2.3-0.8,4-2.2,5.2
	c-1.4,1.2-3.5,2-6.3,2l-7.3,0c-0.3,0-0.5,0.1-0.6,0.4c-0.1,0.2-0.1,0.5,0.1,0.7l15.9,21c0.1,0.2,0.3,0.3,0.5,0.3h5.5
	C250.8,66,251.1,65.9,251.2,65.7z M337,3.4c0-1.6-1.7-2.9-3.3-2.9c-1.6,0-2.6,1.3-2.6,2.9c0,0,0,0,0,0c0,0,0,0,0,0
	c0,2.1-0.8,3.8-2.3,5.1c-1.5,1.3-3.9,2.2-6.6,2.2H15.8c-2.8,0-5.2-0.9-6.6-2.2C7.7,7.3,6.9,5.5,6.9,3.5c0-1.6-1.3-2.9-3-2.9
	C2.4,0.6,1.1,1.8,1,3.3c0,0,0,0.1,0,0.1c0,0,0,0,0,0c0,0,0,0,0,0c0,0,0,0.1,0,0.1h0c0,3.7,1.7,6.9,4.4,9.1c2.7,2.3,6.4,3.5,10.5,3.5
	l135.3,0v44.6H148c-0.2,0-0.4,0.1-0.5,0.2c-0.1,0.1-0.2,0.3-0.2,0.5v3.9c0,0.4,0.3,0.7,0.7,0.7h3.8h4.5h3.8c0.2,0,0.3-0.1,0.5-0.2
	c0.1-0.1,0.2-0.3,0.2-0.5v-3.9c0-0.2-0.1-0.3-0.2-0.5c-0.1-0.1-0.3-0.2-0.5-0.2h-3.1V16.2h165.2c4.1,0,7.7-1.3,10.5-3.5
	C335.3,10.4,337,7.2,337,3.4L337,3.4L337,3.4L337,3.4z M16,23.8L16,23.8L16,23.8L16,23.8H2.7c-0.2,0-0.4,0.1-0.5,0.2
	c-0.1,0.1-0.2,0.3-0.2,0.5v40.9c0,0.2,0.1,0.3,0.2,0.5C2.4,66,2.6,66,2.7,66H16c6.1,0,11.5-2.3,15.4-6c3.9-3.8,6.3-9.1,6.3-15.1v0
	c0-6-2.4-11.3-6.3-15.1C27.5,26.1,22,23.8,16,23.8z M15.5,60.6L15.5,60.6l-7.6,0V29.2h7.6c9.2,0,16.2,6.9,16.2,15.7
	C31.7,53.7,24.7,60.6,15.5,60.6z M65.4,23.4L65.4,23.4L65.4,23.4L65.4,23.4c-6.1,0-11.6,2.4-15.5,6.3c-4,3.9-6.4,9.3-6.4,15.3
	c0,0,0,0,0,0l0,0v0c0,0,0,0,0,0c0,6,2.4,11.4,6.4,15.3c4,3.9,9.4,6.3,15.5,6.3h0c6.1,0,11.6-2.4,15.5-6.3c4-3.9,6.4-9.3,6.4-15.3
	c0-6-2.4-11.4-6.4-15.3C76.9,25.8,71.5,23.4,65.4,23.4z M65.4,61.1c-9,0-16-7-16-16.1c0-9.1,7.1-16.1,16-16.1c9,0,16,7,16,16.1
	C81.4,54,74.4,61.1,65.4,61.1z M188.6,23.4L188.6,23.4C188.6,23.4,188.6,23.4,188.6,23.4L188.6,23.4c-6.1,0-11.6,2.4-15.5,6.3
	c-4,3.9-6.4,9.3-6.4,15.3c0,6,2.4,11.4,6.4,15.3c4,3.9,9.4,6.3,15.5,6.3c0,0-0.1,0-0.1,0c0,0,0.1,0,0.1,0h0c0,0,0,0,0,0c0,0,0,0,0,0
	c6.1,0,11.6-2.4,15.5-6.3c4-3.9,6.4-9.3,6.4-15.3c0-6-2.4-11.4-6.4-15.3C200.1,25.8,194.6,23.4,188.6,23.4z M188.6,61.1
	c-9,0-16-7-16-16.1c0-9.1,7.1-16.1,16-16.1c9,0,16,7,16,16.1C204.6,54,197.5,61.1,188.6,61.1z M122.1,53.7c0-3.1-0.9-5.8-3.1-7.9
	c-2.2-2.1-5.4-3.5-10-4.6l-0.2,0.6l0.2-0.6c-3.8-0.9-6.1-1.8-7.4-2.8c-1.3-1-1.6-1.8-1.6-3.4c0-1.8,0.7-3.2,2.1-4.3
	c1.3-1.1,3.3-1.8,5.7-1.8c4.1,0,7,2,7.9,5.2l0.2,0.6c0.1,0.3,0.4,0.5,0.8,0.5l4.4-0.9c0.2,0,0.3-0.1,0.4-0.3
	c0.1-0.1,0.1-0.3,0.1-0.5l-0.2-0.7c-1.3-5.4-6.3-9.4-13.4-9.4h-0.1c-3.7,0-7.1,1.2-9.7,3.3c-2.5,2.1-4.2,5.1-4.2,8.6c0,0,0,0,0,0
	c0,0,0,0,0,0c0,2.7,0.9,5.2,3,7c2.1,1.9,5.1,3.2,9.4,4.1c4,0.9,6.6,2,8,3.1c1.4,1.2,1.8,2.3,1.8,4.3c0,2.1-0.8,3.8-2.3,5.1
	c-1.5,1.3-3.7,2.1-6.5,2.1c-2.5,0-4.6-0.7-6.2-1.8c-1.6-1.1-2.6-2.8-2.9-4.8l-0.1-0.7c0-0.2-0.1-0.3-0.3-0.4
	c-0.2-0.1-0.3-0.1-0.5-0.1L93.1,54c-0.4,0.1-0.6,0.4-0.5,0.7l0.1,0.6c0.9,6.2,6.8,11.1,14.6,11.1h0c4.1,0,7.7-1.3,10.5-3.5
	C120.4,60.7,122.1,57.5,122.1,53.7L122.1,53.7L122.1,53.7L122.1,53.7C122.1,53.7,122.1,53.7,122.1,53.7z"/>
</svg>
